<?xml version="1.0" standalone="no"?>
<!DOCTYPE svg PUBLIC "-//W3C//DTD SVG 20010904//EN"
 "http://www.w3.org/TR/2001/REC-SVG-20010904/DTD/svg10.dtd">
<svg version="1.0" xmlns="http://www.w3.org/2000/svg"
 width="150.000000pt" height="150.000000pt" viewBox="0 0 150.000000 150.000000"
 preserveAspectRatio="xMidYMid meet">
<metadata>
Created by potrace 1.11, written by Peter Selinger 2001-2013
</metadata>
<g transform="translate(0.000000,150.000000) scale(0.100000,-0.100000)"
fill="#000000" stroke="none">
<path d="M81 1481 c-18 -10 -44 -35 -57 -57 l-24 -39 0 -621 c0 -342 3 -635 6
-651 7 -37 39 -75 81 -97 29 -14 97 -16 664 -16 l631 0 40 22 c24 14 48 38 59
60 18 35 19 68 19 656 0 341 -3 633 -6 649 -3 17 -16 42 -29 57 -49 57 -38 56
-722 56 -585 -1 -630 -2 -662 -19z"/>
</g>
</svg>
